<svg viewBox="0 0 115 15" xmlns="http://www.w3.org/2000/svg" fill-rule="evenodd" clip-rule="evenodd"><path d="M41.792 5.011c-.325-1.585-1.622-2.006-3.075-2.143-4.693-.434-5.526 3.078-5.526 4.562 0 2.537.742 4.635 5.348 4.635.85 0 3.196-.873 3.196-2.299h6.625c-.265 4.223-7.352 5.234-10.443 5.234-6.403 0-11.886-1.193-11.621-7.512.191-4.51 4.445-7.676 12.908-7.479 4.718.112 9.25 1.585 9.269 5.002zM108.158 5.011c-.326-1.585-1.625-2.006-3.077-2.143-4.693-.434-5.525 3.078-5.525 4.562 0 2.537.741 4.635 5.347 4.635.85 0 3.195-.873 3.195-2.299h6.626c-.267 4.223-7.352 5.234-10.443 5.234-6.402 0-11.886-1.193-11.62-7.512.189-4.51 4.442-7.676 12.906-7.479 4.718.112 9.25 1.585 9.27 5.002zM49.655.313h8.602l7.338 10.307h.059v-10.307h5.514v14.312h-8.242l-7.699-10.308h-.058v10.308h-5.514zM72.868.313h10.448c5.023 0 7.974 1.403 7.974 3.53 0 1.253-1.234 2.798-3.991 3.255v.041c3.32.197 4.544 2.298 4.544 3.558 0 2.523-2.879 3.928-8.496 3.928h-10.478zm6.048 5.56h1.733c2.666 0 4.081-.208 4.081-1.319 0-1.187-1.175-1.584-3.577-1.584h-2.237zm0 5.752h1.733c3.215 0 4.394-.338 4.394-1.449 0-1.189-1.487-1.584-3.89-1.584h-2.237zM16.593 2.079c.377.76.156 1.759-.237 2.441l-3.038 6.854-.027.03-1.098-6.951c-.088-.668.625-.953 1.042-1.273-.022-.097-.13-.093-.197-.14l-1.026-.01-.031-.03c.006-.864.469-1.661 1.254-2.079.82-.476 1.976-.347 2.688.263.289.259.531.559.67.895zM10.888 1.843c.247.46.392.983.303 1.562l-1.237 7.96-.016.026-.32-.641-3.105-6.951c-.29-.895-.021-1.831.629-2.473.655-.668 1.733-.849 2.59-.487.454.198.887.559 1.156 1.004zM21.147 5.243c.417.714.324 1.795-.139 2.457-.29.465-.764.699-1.167 1.004l-6.433 4.428h-.016l.073-.212 3.409-7.716c.511-.911 1.486-1.37 2.518-1.232.707.13 1.415.59 1.755 1.272zM6.302 5.203l3.55 7.929h-.058l-7.156-4.944c-.727-.616-1.026-1.536-.779-2.466.185-.699.763-1.351 1.45-1.609 1.124-.415 2.395.025 2.992 1.09zM23.031 10.908c.355.756.217 1.79-.295 2.431-.506.616-1.181.951-1.976.931l-7.63.005 6.393-4.458c.623-.404 1.573-.476 2.255-.151.526.207 1.02.724 1.253 1.241zM.18 10.908c-.357.756-.217 1.79.294 2.431.506.616 1.182.951 1.976.931l7.63.005-6.393-4.458c-.624-.404-1.573-.476-2.254-.151-.525.207-1.021.724-1.253 1.241z" fill="#fff"/></svg>